<svg width="1050" height="338" viewBox="0 0 1050 338" fill="none" xmlns="http://www.w3.org/2000/svg">
<circle cx="153.233" cy="170.657" r="153.233" fill="#D88470"/>
<path d="M202.166 98.165L235.76 98.165L235.76 241.305L202.166 241.305L202.166 98.165ZM174.672 166.815C165.655 166.815 158.347 159.555 158.347 150.597L158.347 114.385C158.347 105.427 165.655 98.166 174.672 98.166L191.94 98.166L191.94 166.815L174.672 166.815ZM174.672 241.305C165.655 241.305 158.347 234.199 158.347 225.432L158.347 189.99C158.347 181.223 165.655 174.117 174.672 174.117L191.941 174.117L191.941 241.305L174.672 241.305Z" fill="white"/>
<path d="M114.524 165.354L114.524 98.166L131.794 98.166C140.811 98.166 148.119 105.273 148.119 114.04L148.119 149.481C148.119 158.249 140.811 165.354 131.794 165.354L114.524 165.354ZM70.707 98.166L104.301 98.166L104.301 241.307L70.707 241.307L70.707 98.166ZM114.524 172.656L131.794 172.656C140.811 172.656 148.119 179.917 148.119 188.875L148.119 225.087C148.119 234.045 140.811 241.305 131.794 241.305L114.524 241.305L114.524 172.656Z" fill="white"/>
<g clip-path="url(#clip0_109_63)">
<path d="M426.329 262.43V245.672H437.31V232.26H426.329V218.88H440.731V205.627H409.4V275.603H440.875V262.43H426.329ZM437.87 272.417H412.406V208.813H437.726V215.694H423.323V235.446H434.305V242.487H423.323V265.615H437.87V272.417Z" fill="white"/>
<path d="M461.624 205.627H444.168V275.603H461.784C478.184 275.603 484.291 269.359 484.291 252.57V228.326C484.291 211.776 478.136 205.627 461.624 205.627ZM481.285 252.57C481.285 267.399 476.362 272.417 461.784 272.417H447.173V208.813H461.624C476.506 208.813 481.285 213.56 481.285 228.326V252.57Z" fill="white"/>
<path d="M523.63 242.502C529.752 238.839 531.063 232.77 531.063 224.869C531.063 207.825 519.058 205.627 508.636 205.627H489.773V275.603H506.718V245.672H507.996L514.934 275.603H532.502L523.662 242.502H523.63ZM510.346 242.502H503.696V272.433H492.763V208.829H508.62C522.591 208.829 528.042 213.337 528.042 224.885C528.042 233.694 526.251 237.724 521.2 240.256L520.049 240.846L528.505 272.433H517.268L510.33 242.502H510.346ZM509.707 215.535H503.696V237.198H509.099C517.204 237.198 518.147 230.922 518.147 226.207C518.147 223.563 518.147 215.535 509.707 215.535ZM509.083 234.012H506.686V218.721H509.691C513.048 218.721 515.126 219.979 515.126 226.207C515.126 231.957 513.527 234.012 509.083 234.012Z" fill="white"/>
<path d="M536.545 205.627V275.603H553.473V205.627H536.545ZM550.468 272.417H539.55V208.813H550.468V272.417Z" fill="white"/>
<path d="M563.768 205.627V258.67C563.768 263.162 562.984 263.831 557.725 263.831H556.223V277.323H564.503C576.012 277.323 580.712 272.114 580.712 259.323V205.627H563.768ZM577.707 259.323C577.707 270.267 574.254 274.137 564.503 274.137H559.228V266.985C564.247 266.746 566.773 265.122 566.773 258.67V208.813H577.707V259.323Z" fill="white"/>
<path d="M617.302 218.784V209.322C616.503 208.176 615.864 206.949 615.4 205.627H587.059V275.603H604.003V245.911H615.592V232.419H604.003V218.784H617.302ZM612.587 235.605V242.725H600.998V272.417H590.064V208.813H614.297V215.598H600.998V235.605H612.587Z" fill="white"/>
<path d="M646.347 236.942L641.136 232.068C637.683 228.882 635.589 226.636 635.589 222.304C635.589 220.918 636.197 218.704 637.811 218.704C639.426 218.704 640.241 219.851 640.449 226.891L655.491 226.684L655.443 225.234C655.315 221.204 654.723 217.764 653.668 214.913C652.39 215.04 651.606 215.47 650.791 215.852C651.654 218.051 652.166 220.727 652.358 223.881L643.39 225.043C643.294 222.606 643.054 220.089 642.159 218.258C638.004 218.481 633.607 218.178 632.584 222.304C632.584 227.942 635.445 231.033 639.154 234.473L644.381 239.348C648.969 243.521 653.668 249.016 653.668 258.176C653.668 267.335 647.482 273.404 638.658 273.404C627.837 273.404 622.833 267.924 622.098 255.165L631.002 253.747C631.273 259.498 632.536 265.375 637.971 265.375C639.474 265.375 642.974 264.738 642.974 258.908C642.974 253.078 640.241 249.287 635.525 245.018L630.058 239.969C626.142 236.48 622.098 231.829 622.098 223.801C622.098 220.456 622.737 217.573 624 215.215C619.892 216.378 619.093 219.819 619.093 223.801C619.093 233.183 623.92 238.679 628.092 242.39L633.543 247.424C637.699 251.183 639.953 254.13 639.953 258.908C639.953 262.19 638.642 262.19 637.955 262.19C634.103 262.19 633.927 251.884 633.895 250.068L618.965 252.441L619.013 253.859C619.508 269.358 625.743 276.589 638.643 276.589C649.081 276.589 656.658 268.848 656.658 258.176C656.658 247.503 651.127 241.291 646.331 236.942H646.347Z" fill="white"/>
<path d="M682.041 205.627L676.974 242.009L673.153 216.411L670.404 218.354L677.086 263.115L684.631 208.813H694.142L683.16 272.417H670.963L661.74 218.29C660.605 218.067 659.55 217.749 658.543 217.383L668.454 275.603H685.67L697.738 205.627H682.025H682.041Z" fill="white"/>
<path d="M719.511 204.719C705.588 204.719 699.098 212.173 699.098 228.166V252.983C699.098 269.088 705.588 276.59 719.511 276.59C733.434 276.59 740.083 269.088 740.083 252.983V228.166C740.083 212.173 733.546 204.719 719.511 204.719ZM737.078 252.983C737.078 267.288 731.835 273.404 719.511 273.404C707.186 273.404 702.103 267.288 702.103 252.983V228.166C702.103 213.973 707.298 207.905 719.511 207.905C731.723 207.905 737.078 213.973 737.078 228.166V252.983ZM722.835 256.695C722.835 261.936 721.669 262.923 719.511 262.923C717.097 262.923 716.346 261.474 716.346 256.695V224.534C716.346 219.31 717.512 218.29 719.511 218.29C721.701 218.29 722.835 219.262 722.835 224.534V256.695Z" fill="white"/>
<path d="M762.495 262.43V245.672H773.461V232.26H762.495V218.88H776.882V205.627H745.551V275.603H777.025V262.43H762.495ZM774.02 272.417H748.556V208.813H773.876V215.694H759.49V235.446H770.456V242.487H759.49V265.615H774.02V272.417Z" fill="white"/>
<path d="M814.19 242.502C820.328 238.839 821.623 232.77 821.623 224.869C821.623 207.825 809.634 205.627 799.196 205.627H780.35V275.603H797.278V245.672H798.573L805.494 275.603H823.062L814.206 242.502H814.19ZM800.922 242.502H794.257V272.433H783.339V208.829H799.18C813.167 208.829 818.602 213.337 818.602 224.885C818.602 233.694 816.812 237.724 811.76 240.256L810.625 240.846L819.065 272.433H807.828L800.906 242.502H800.922ZM799.66 234.012H797.262V218.721H800.267C803.624 218.721 805.702 219.979 805.702 226.207C805.702 231.957 804.119 234.012 799.66 234.012Z" fill="white"/>
<path d="M827.107 205.627V275.603H844.052V205.627H827.107ZM841.046 272.417H830.113V208.813H841.046V272.417Z" fill="white"/>
<path d="M873.16 205.627V231.575L862.738 205.627H850.445V275.603H865.359V247.743L875.75 275.603H887.691V205.627H873.16ZM884.669 272.417H877.78L862.338 231.018V272.417H853.435V208.813H860.74L876.149 247.186V208.813H884.653V272.417H884.669Z" fill="white"/>
<path d="M912.468 237.787V249.622H918.142V255.867C918.142 262.923 915.265 262.923 914.21 262.923C912.276 262.923 910.502 262.095 910.502 256.026V225.108C910.502 219.947 911.317 218.29 913.826 218.29C916.336 218.29 916.991 219.676 916.991 224.694V231.734H933.616V225.856C933.616 211.839 926.918 204.719 913.667 204.719C895.364 204.719 893.27 218.848 893.27 229.488V251.9C893.27 268.514 899.408 276.59 912.052 276.59C915.968 276.59 919.054 275.3 921.323 272.751L921.707 275.603H933.696V237.787H912.484H912.468ZM930.675 272.417H924.297L922.97 263.098L920.844 267.797C919.133 271.62 916.32 273.404 912.02 273.404C901.102 273.404 896.243 266.778 896.243 251.9V229.488C896.243 214.356 901.438 207.905 913.635 207.905C925.831 207.905 930.579 213.448 930.579 225.856V228.548H919.965V224.694C919.965 221.349 919.965 215.104 913.794 215.104C907.624 215.104 907.464 221.874 907.464 225.108V256.026C907.464 262.716 909.718 266.109 914.178 266.109C916.768 266.109 921.132 264.787 921.132 255.867V246.437H915.457V240.973H930.659V272.417H930.675Z" fill="white"/>
<path d="M455.087 112.266V62.9336H434.051V112.266V163.859H476.971V148.791H455.087V112.266Z" fill="white"/>
<path d="M511.913 61.5645C490.509 61.5645 483.332 73.766 483.332 94.5852V132.082C483.332 152.901 490.509 165.357 511.913 165.357C533.317 165.357 540.718 152.901 540.718 132.082V94.5852C540.718 73.766 533.429 61.5645 511.913 61.5645ZM519.203 137.689C519.203 143.423 518.499 149.54 511.913 149.54C505.327 149.54 504.848 143.423 504.848 137.689V89.0897C504.848 83.1163 505.679 77.2545 511.913 77.2545C518.499 77.2545 519.203 83.1163 519.203 89.0897V137.689Z" fill="white"/>
<path d="M574.591 118.637H591.184V112.266V103.186H574.591V78.1298H596.363V62.9336H553.539V112.266V163.859H596.587V148.791H574.591V118.637Z" fill="white"/>
<path d="M630.237 62.9336H606.115V112.266V163.859H617.784C618.216 157.408 622.308 151.116 630.668 148.408H627.168V112.266V78.4962H630.349C639.636 78.4962 640.579 82.112 640.579 90.9685V112.266V134.948C640.579 141.256 640.291 145.27 636.966 147.15C638.037 147.038 639.14 146.991 640.307 146.991C647.724 146.991 653.879 149.284 657.843 153.139C661.008 147.962 662.239 140.81 662.239 131.46V112.266V94.8233C662.239 72.3954 655.046 62.9336 630.253 62.9336H630.237Z" fill="white"/>
<path d="M723.812 112.25C721.638 110.912 719.096 110.036 716.187 109.638C724.899 107.901 730.19 101.546 730.19 89.3282C730.19 66.9002 716.187 62.918 699.85 62.918H675.025V112.25V163.844H704.31C722.661 163.844 733.131 154.876 733.131 133.945C733.131 123.368 729.934 115.977 723.812 112.25ZM696.094 77.8593H699.738C707.619 77.8593 711.743 81.9849 711.743 89.9494C711.743 98.4236 709.745 103.282 700.234 103.282H696.11V77.8593H696.094ZM700.554 148.265H696.094V117.984H700.442C709.617 117.984 712.798 122.221 712.798 133.563C712.798 143.295 709.857 148.265 700.554 148.265Z" fill="white"/>
<path d="M781.358 62.9336H757.364L748.573 112.266L739.365 163.859H759.251L762.544 142.562H776.547L779.712 163.859H799.117L790.038 112.266L781.342 62.9336H781.358ZM764.43 129.23L766.604 112.266L769.481 89.8376L772.374 112.266L774.548 129.23H764.43Z" fill="white"/>
<path d="M843.11 111.533L823.592 62.9336H808.758V112.266V163.859H826.757V112.266V111.533L827.029 112.266L846.291 163.859H860.518V112.266V62.9336H843.11V111.533Z" fill="white"/>
<path d="M898.866 62.9336H874.744V163.859H899.089C923.675 163.859 930.852 154.143 930.852 131.46V94.8233C930.852 72.3954 923.659 62.9336 898.866 62.9336ZM909.208 134.948C909.208 144.06 908.617 148.408 899.089 148.408H895.797V78.4962H898.962C908.249 78.4962 909.192 82.112 909.192 90.9685V134.948H909.208Z" fill="white"/>
<path d="M668.728 203.269C666.937 203.174 665.259 202.632 664.076 202.027C667.065 197.646 669.623 192.183 669.623 183.247V181.654H655.492L655.412 183.167C655.236 186.448 654.565 190.43 653.654 192.931L646.284 182.88C647.499 181.956 653.174 177.576 659.632 164.53C659.632 161.058 658.305 158.031 655.955 155.674C652.551 152.233 647.02 150.162 640.29 150.162C627.486 150.162 621.38 156.852 620.804 163.845C620.74 164.976 620.74 164.976 620.74 164.976C620.74 170.312 624.353 175.696 628.317 180.809C622.419 185.477 617.271 191.036 617.271 199.303C617.271 204.113 619.413 208.128 623.154 210.915C629.228 214.324 633.48 215.296 638.34 215.296C642.464 215.296 646.173 214.531 649.338 213.066C651.991 211.552 653.142 210.708 653.142 210.708C654.261 211.6 655.891 212.747 657.906 213.687C662.589 215.28 664.124 215.519 665.786 215.519C667.177 215.455 668.759 215.296 669.91 215.2H670.134V203.365L668.728 203.269ZM637.525 163.527C638.004 162.491 639.059 161.886 640.498 161.886C643.471 163.049 643.791 163.574 643.791 164.307C643.791 166.967 641.873 170.854 639.763 173.53C638.42 170.949 637.205 167.923 637.205 164.976C637.205 164.434 637.317 163.941 637.525 163.527ZM638.963 204.018C635.447 204.018 633.432 202.106 633.432 198.777C633.432 196.356 634.312 193.983 636.182 191.418L644.222 202.266C642.736 203.413 640.913 204.018 638.963 204.018Z" fill="white"/>
<path d="M387.421 62.0117H363.539V165.359H387.421V62.0117Z" fill="white"/>
<path d="M395.621 116.393H407.898C414.308 116.393 419.503 121.569 419.503 127.957V153.778C419.503 160.165 414.308 165.342 407.898 165.342H395.621V116.393Z" fill="white"/>
<path d="M395.111 62.0117H407.388C413.798 62.0117 418.993 67.1886 418.993 73.5761V99.397C418.993 105.784 413.798 110.961 407.388 110.961H395.111V62.0117Z" fill="white"/>
<path d="M376.6 208.637V272.576H366.754V208.637H376.6ZM379.797 205.451H363.557V275.762H379.797V205.451Z" fill="white"/>
<path d="M393.719 245.656C396.309 245.656 398.419 247.759 398.419 250.34V267.909C398.419 270.49 396.309 272.592 393.719 272.592H388.572V245.656H393.719ZM393.719 242.471H385.375V275.778H393.719C398.083 275.778 401.616 272.258 401.616 267.909V250.34C401.616 245.991 398.083 242.471 393.719 242.471Z" fill="white"/>
<path d="M393.368 208.637C395.957 208.637 398.067 210.74 398.067 213.32V230.89C398.067 233.47 395.957 235.573 393.368 235.573H388.22V208.637H393.368ZM393.368 205.451H385.023V238.759H393.368C397.732 238.759 401.264 235.238 401.264 230.89V213.32C401.264 208.971 397.732 205.451 393.368 205.451Z" fill="white"/>
</g>
<defs>
<clipPath id="clip0_109_63">
<rect width="799.478" height="337.216" fill="white" transform="translate(250.094)"/>
</clipPath>
</defs>
</svg>
