<svg viewBox="0 0 32 32" fill="none" xmlns="http://www.w3.org/2000/svg">
<rect width="32" height="32" rx="7" fill="#D88470"/>
<g transform="translate(5.5, 4.5) scale(0.069)">
<path d="M202.166 98.165L235.76 98.165L235.76 241.305L202.166 241.305L202.166 98.165ZM174.672 166.815C165.655 166.815 158.347 159.555 158.347 150.597L158.347 114.385C158.347 105.427 165.655 98.166 174.672 98.166L191.94 98.166L191.94 166.815L174.672 166.815ZM174.672 241.305C165.655 241.305 158.347 234.199 158.347 225.432L158.347 189.99C158.347 181.223 165.655 174.117 174.672 174.117L191.941 174.117L191.941 241.305L174.672 241.305Z" fill="white"/>
<path d="M114.524 165.354L114.524 98.166L131.794 98.166C140.811 98.166 148.119 105.273 148.119 114.04L148.119 149.481C148.119 158.249 140.811 165.354 131.794 165.354L114.524 165.354ZM70.707 98.166L104.301 98.166L104.301 241.307L70.707 241.307L70.707 98.166ZM114.524 172.656L131.794 172.656C140.811 172.656 148.119 179.917 148.119 188.875L148.119 225.087C148.119 234.045 140.811 241.305 131.794 241.305L114.524 241.305L114.524 172.656Z" fill="white"/>
</g>
</svg>
